<?xml version="1.0" encoding="UTF-8" standalone="no"?>
<!DOCTYPE svg PUBLIC "-//W3C//DTD SVG 1.1//EN" "http://www.w3.org/Graphics/SVG/1.1/DTD/svg11.dtd">
<svg width="100%" height="100%" viewBox="0 0 540 85" version="1.1" xmlns="http://www.w3.org/2000/svg" xmlns:xlink="http://www.w3.org/1999/xlink" xml:space="preserve" xmlns:serif="http://www.serif.com/" style="fill-rule:evenodd;clip-rule:evenodd;stroke-linejoin:round;stroke-miterlimit:2;">
    <g>
        <path d="M538,13.09C538,6.969 533.031,2 526.91,2L13.09,2C6.969,2 2,6.969 2,13.09L2,71.41C2,77.531 6.969,82.5 13.09,82.5L526.91,82.5C533.031,82.5 538,77.531 538,71.41L538,13.09Z" style="fill:rgb(41,171,224);"/>
        <path d="M526.91,4C531.92,4 536,8.08 536,13.09L536,71.4C536,76.41 531.92,80.49 526.91,80.49L13.09,80.49C8.08,80.49 4,76.41 4,71.4L4,13.09C4,8.08 8.08,4 13.09,4L526.91,4M526.91,0L13.09,0C5.86,0 0,5.86 0,13.09L0,71.4C0,78.64 5.86,84.5 13.09,84.5L526.91,84.5C534.14,84.5 540,78.64 540,71.41L540,13.09C540,5.86 534.14,0 526.91,0Z" style="fill-rule:nonzero;"/>
    </g>
    <g id="Layer_1-2">
        <g id="Layer_1-3">
            <g>
                <path d="M79.95,45.15C77.06,45.47 74.65,45.3 74.65,45.3L74.65,27.18L78.34,27.18C80.75,27.18 83,28.14 84.59,30.07C85.71,31.36 86.52,33.12 86.52,35.69C86.52,41.62 83.47,44.02 79.95,45.14L79.95,45.15ZM95.51,32.48C94.39,26.86 91.5,23.34 88.29,21.25C85.09,19 81.23,17.88 77.38,17.88L22.19,17.88C20.26,17.88 19.46,19.81 19.46,20.77L19.46,21.41C19.46,21.41 19.3,45.8 19.61,58.95C20.09,66.65 27.79,66.65 27.79,66.65C27.79,66.65 52.97,66.65 65.17,66.5C65.81,66.5 66.29,66.5 66.93,66.35C73.82,64.59 74.47,58.17 74.47,54.63C88.28,55.25 98.07,45.46 95.51,32.47L95.51,32.48Z" style="fill:white;fill-rule:nonzero;"/>
                <g>
                    <path d="M97.51,32.1L97.51,32.07C96.14,25.2 92.37,21.48 89.44,19.57C86.01,17.17 81.74,15.85 77.39,15.85L22.19,15.85C19.09,15.85 17.43,18.71 17.43,20.77L17.43,21.4C17.43,21.64 17.28,45.96 17.58,59L17.58,59.08C17.89,64.04 20.69,66.41 22.99,67.52C25.37,68.67 27.69,68.69 27.79,68.69C28.82,68.69 53.21,68.69 65.17,68.54C65.86,68.54 66.52,68.54 67.39,68.33L67.42,68.33C71.06,67.39 73.65,65.26 75.12,62C75.82,60.46 76.24,58.72 76.4,56.69C79.74,56.61 82.87,55.95 85.73,54.73C88.74,53.45 91.29,51.61 93.31,49.26C97.27,44.66 98.75,38.56 97.48,32.1L97.51,32.1ZM21.65,58.87C21.35,46.05 21.49,22.42 21.5,21.41L21.5,20.78C21.5,20.72 21.65,19.91 22.2,19.91L77.4,19.91C80.93,19.91 84.39,20.98 87.14,22.91C87.16,22.92 87.18,22.94 87.2,22.95C90.52,25.11 92.65,28.45 93.53,32.87C94.56,38.09 93.4,42.97 90.27,46.61C86.74,50.71 81.02,52.9 74.58,52.61C74.03,52.58 73.48,52.79 73.08,53.17C72.68,53.55 72.45,54.09 72.45,54.64C72.45,60.16 70.49,63.35 66.46,64.38C66.06,64.48 65.77,64.48 65.2,64.48L65.16,64.48C54.55,64.61 34.06,64.63 28.03,64.63L27.81,64.63C27.81,64.63 26.29,64.6 24.78,63.87C22.86,62.94 21.81,61.26 21.66,58.87L21.65,58.87Z" style="fill-rule:nonzero;"/>
                    <path d="M74.51,47.33C74.58,47.33 75.24,47.38 76.27,47.38C77.6,47.38 78.92,47.31 80.17,47.17C80.3,47.16 80.43,47.13 80.56,47.09C85.86,45.41 88.55,41.57 88.55,35.7C88.55,32.94 87.74,30.61 86.14,28.77C84.2,26.44 81.43,25.15 78.34,25.15L74.65,25.15C73.53,25.15 72.62,26.06 72.62,27.18L72.62,45.3C72.62,46.36 73.45,47.25 74.51,47.33ZM76.68,43.32L76.68,29.21L78.34,29.21C80.21,29.21 81.88,29.98 83.03,31.37L83.06,31.41C84.02,32.52 84.49,33.92 84.49,35.7C84.49,39.76 83,41.99 79.52,43.16C78.61,43.25 77.66,43.31 76.68,43.32Z" style="fill-rule:nonzero;"/>
                </g>
            </g>
            <path d="M46.57,56.38C47.21,56.7 47.53,56.38 47.53,56.38C47.53,56.38 56.35,48.36 60.37,43.71C63.89,39.54 64.06,32.64 58.12,30.08C52.02,27.51 47.05,33.13 47.05,33.13C42.72,28.32 36.14,28.64 33.09,31.84C30.04,35.04 31.16,40.51 33.41,43.71C35.49,46.6 44.8,54.94 46.25,56.23C46.25,56.06 46.42,56.23 46.57,56.38Z" style="fill:rgb(255,94,91);fill-rule:nonzero;"/>
            <path d="M46.87,56.61C47.23,56.68 47.54,56.37 47.54,56.37C47.54,56.37 56.36,48.35 60.38,43.7C63.9,39.53 64.07,32.63 58.13,30.07C52.03,27.5 47.06,33.12 47.06,33.12C42.73,28.31 36.15,28.63 33.1,31.83C30.05,35.03 31.17,40.5 33.42,43.7C35.38,46.43 45.23,55.29 46.46,56.39C46.58,56.5 46.72,56.58 46.88,56.6L46.87,56.61Z" style="fill:url(#_Linear1);fill-rule:nonzero;"/>
        </g>
    </g>
    <g>
        <path d="M132.83,53.94C130.95,53.38 129.43,52.62 128.25,51.66C127.62,51.19 127.31,50.54 127.31,49.69C127.31,49.11 127.48,48.62 127.82,48.19C128.16,47.77 128.57,47.55 129.03,47.55C129.52,47.55 130.08,47.74 130.71,48.13C131.89,48.98 133.12,49.6 134.41,49.98C135.7,50.36 137.12,50.56 138.68,50.56C140.68,50.56 142.21,50.21 143.28,49.51C144.35,48.81 144.88,47.79 144.88,46.45C144.88,45.41 144.38,44.61 143.38,44.05C142.38,43.49 140.72,42.95 138.39,42.43C135.98,41.91 134.02,41.31 132.52,40.62C131.01,39.94 129.88,39.06 129.11,37.99C128.34,36.92 127.96,35.57 127.96,33.92C127.96,32.27 128.44,30.7 129.4,29.36C130.36,28.02 131.69,26.97 133.41,26.22C135.12,25.47 137.05,25.09 139.18,25.09C143.1,25.09 146.29,26.13 148.75,28.21C149.11,28.51 149.36,28.81 149.51,29.09C149.66,29.38 149.74,29.74 149.74,30.18C149.74,30.76 149.57,31.26 149.23,31.68C148.89,32.1 148.48,32.32 148.02,32.32C147.75,32.32 147.49,32.28 147.26,32.2C147.03,32.12 146.72,31.97 146.34,31.75C145.22,30.93 144.13,30.32 143.07,29.92C142.02,29.52 140.72,29.32 139.19,29.32C137.33,29.32 135.86,29.7 134.77,30.45C133.69,31.2 133.15,32.25 133.15,33.59C133.15,34.71 133.63,35.58 134.59,36.18C135.55,36.78 137.18,37.34 139.48,37.86C141.92,38.41 143.9,39.02 145.42,39.69C146.94,40.36 148.1,41.22 148.91,42.26C149.72,43.3 150.12,44.6 150.12,46.16C150.12,47.86 149.65,49.36 148.7,50.66C147.76,51.96 146.43,52.97 144.72,53.7C143.01,54.43 141.04,54.79 138.82,54.79C136.6,54.79 134.72,54.51 132.84,53.95L132.83,53.94Z" style="fill:white;fill-rule:nonzero;"/>
        <path d="M172.28,34.57C172.75,35.01 172.98,35.6 172.98,36.34L172.98,52.28C172.98,52.99 172.74,53.57 172.26,54.01C171.78,54.45 171.16,54.67 170.39,54.67C169.62,54.67 169.06,54.46 168.62,54.05C168.18,53.64 167.96,53.08 167.96,52.37L167.96,51.34C167.33,52.44 166.48,53.28 165.41,53.87C164.34,54.46 163.14,54.75 161.79,54.75C156.86,54.75 154.4,51.98 154.4,46.45L154.4,36.34C154.4,35.6 154.63,35.01 155.1,34.57C155.57,34.13 156.18,33.91 156.95,33.91C157.72,33.91 158.37,34.13 158.84,34.57C159.31,35.01 159.54,35.6 159.54,36.34L159.54,46.49C159.54,47.91 159.83,48.97 160.4,49.65C160.98,50.33 161.88,50.68 163.11,50.68C164.53,50.68 165.68,50.21 166.54,49.26C167.4,48.31 167.83,47.06 167.83,45.5L167.83,36.34C167.83,35.6 168.06,35.01 168.53,34.57C169,34.13 169.61,33.91 170.38,33.91C171.15,33.91 171.8,34.13 172.27,34.57L172.28,34.57Z" style="fill:white;fill-rule:nonzero;"/>
        <path d="M194.49,35.15C195.85,36.03 196.9,37.27 197.65,38.87C198.4,40.47 198.78,42.31 198.78,44.4C198.78,46.49 198.4,48.3 197.65,49.86C196.9,51.42 195.85,52.63 194.51,53.48C193.17,54.33 191.62,54.75 189.87,54.75C188.45,54.75 187.17,54.45 186.05,53.85C184.93,53.25 184.06,52.41 183.46,51.34L183.46,59.72C183.46,60.43 183.23,60.99 182.76,61.4C182.29,61.81 181.68,62.02 180.91,62.02C180.14,62.02 179.52,61.8 179.04,61.36C178.56,60.92 178.32,60.35 178.32,59.63L178.32,36.34C178.32,35.6 178.55,35.01 179,34.57C179.45,34.13 180.06,33.91 180.83,33.91C181.6,33.91 182.21,34.13 182.68,34.57C183.15,35.01 183.38,35.6 183.38,36.34L183.38,37.37C183.98,36.25 184.85,35.38 185.99,34.76C187.13,34.14 188.42,33.84 189.87,33.84C191.6,33.84 193.14,34.28 194.49,35.15ZM192.29,49.1C193.19,47.99 193.65,46.42 193.65,44.4C193.65,42.38 193.2,40.7 192.29,39.55C191.39,38.4 190.13,37.82 188.51,37.82C186.89,37.82 185.6,38.38 184.71,39.5C183.82,40.62 183.38,42.23 183.38,44.31C183.38,46.39 183.82,47.95 184.71,49.08C185.6,50.2 186.87,50.76 188.51,50.76C190.15,50.76 191.39,50.21 192.29,49.1Z" style="fill:white;fill-rule:nonzero;"/>
        <path d="M219.18,35.15C220.54,36.03 221.59,37.27 222.34,38.87C223.09,40.47 223.47,42.31 223.47,44.4C223.47,46.49 223.09,48.3 222.34,49.86C221.59,51.42 220.54,52.63 219.2,53.48C217.86,54.33 216.31,54.75 214.56,54.75C213.14,54.75 211.86,54.45 210.74,53.85C209.62,53.25 208.75,52.41 208.15,51.34L208.15,59.72C208.15,60.43 207.92,60.99 207.45,61.4C206.98,61.81 206.37,62.02 205.6,62.02C204.83,62.02 204.21,61.8 203.73,61.36C203.25,60.92 203.01,60.35 203.01,59.63L203.01,36.34C203.01,35.6 203.24,35.01 203.69,34.57C204.14,34.13 204.75,33.91 205.52,33.91C206.29,33.91 206.9,34.13 207.37,34.57C207.84,35.01 208.07,35.6 208.07,36.34L208.07,37.37C208.67,36.25 209.54,35.38 210.68,34.76C211.82,34.14 213.11,33.84 214.56,33.84C216.29,33.84 217.83,34.28 219.18,35.15ZM216.98,49.1C217.88,47.99 218.34,46.42 218.34,44.4C218.34,42.38 217.89,40.7 216.98,39.55C216.08,38.4 214.82,37.82 213.2,37.82C211.58,37.82 210.29,38.38 209.4,39.5C208.51,40.62 208.07,42.23 208.07,44.31C208.07,46.39 208.51,47.95 209.4,49.08C210.29,50.2 211.56,50.76 213.2,50.76C214.84,50.76 216.08,50.21 216.98,49.1Z" style="fill:white;fill-rule:nonzero;"/>
        <path d="M231.46,53.47C229.91,52.62 228.71,51.4 227.87,49.81C227.02,48.22 226.6,46.37 226.6,44.26C226.6,42.15 227.02,40.31 227.87,38.74C228.72,37.17 229.92,35.95 231.46,35.1C233.01,34.25 234.81,33.83 236.86,33.83C238.91,33.83 240.71,34.25 242.26,35.1C243.81,35.95 245,37.16 245.83,38.74C246.66,40.32 247.08,42.16 247.08,44.26C247.08,46.36 246.66,48.22 245.83,49.81C244.99,51.4 243.8,52.62 242.26,53.47C240.71,54.32 238.91,54.74 236.86,54.74C234.81,54.74 233.01,54.32 231.46,53.47ZM240.64,49.12C241.52,48.02 241.95,46.41 241.95,44.27C241.95,42.13 241.51,40.55 240.64,39.44C239.76,38.33 238.5,37.78 236.86,37.78C235.22,37.78 233.95,38.33 233.06,39.44C232.17,40.55 231.73,42.16 231.73,44.27C231.73,46.38 232.17,48.02 233.04,49.12C233.92,50.22 235.18,50.76 236.82,50.76C238.46,50.76 239.76,50.21 240.64,49.12Z" style="fill:white;fill-rule:nonzero;"/>
        <path d="M264.22,34.37C264.63,34.73 264.84,35.26 264.84,35.97C264.84,36.68 264.66,37.26 264.31,37.61C263.95,37.97 263.31,38.2 262.38,38.31L261.15,38.43C259.53,38.59 258.35,39.14 257.6,40.07C256.85,41 256.47,42.17 256.47,43.56L256.47,52.19C256.47,52.98 256.22,53.59 255.73,54.02C255.24,54.44 254.62,54.66 253.88,54.66C253.14,54.66 252.53,54.45 252.05,54.02C251.57,53.6 251.33,52.99 251.33,52.19L251.33,36.29C251.33,35.52 251.57,34.93 252.05,34.52C252.53,34.11 253.12,33.9 253.84,33.9C254.56,33.9 255.13,34.1 255.57,34.5C256.01,34.9 256.23,35.47 256.23,36.2L256.23,37.84C256.75,36.63 257.52,35.7 258.55,35.05C259.58,34.39 260.72,34.02 261.98,33.94L262.56,33.9C263.27,33.85 263.83,34 264.24,34.35L264.22,34.37Z" style="fill:white;fill-rule:nonzero;"/>
        <path d="M281.39,52.69C281.39,53.35 281.12,53.85 280.59,54.19C280.06,54.53 279.3,54.68 278.31,54.62L277.2,54.54C272.6,54.21 270.3,51.75 270.3,47.15L270.3,38.19L268.25,38.19C267.51,38.19 266.94,38.03 266.55,37.7C266.16,37.37 265.95,36.89 265.95,36.26C265.95,35.63 266.15,35.15 266.55,34.82C266.95,34.49 267.52,34.33 268.25,34.33L270.3,34.33L270.3,30.55C270.3,29.81 270.53,29.22 271,28.78C271.47,28.34 272.1,28.12 272.89,28.12C273.68,28.12 274.27,28.34 274.74,28.78C275.21,29.22 275.44,29.81 275.44,30.55L275.44,34.33L278.93,34.33C279.67,34.33 280.24,34.49 280.63,34.82C281.02,35.15 281.23,35.63 281.23,36.26C281.23,36.89 281.03,37.37 280.63,37.7C280.23,38.03 279.66,38.19 278.93,38.19L275.44,38.19L275.44,47.52C275.44,49.55 276.37,50.63 278.23,50.77L279.34,50.85C280.71,50.93 281.39,51.55 281.39,52.7L281.39,52.69Z" style="fill:white;fill-rule:nonzero;"/>
        <path d="M324.1,35.79C325.26,37.09 325.85,39.19 325.85,42.1L325.85,52.21C325.85,53 325.61,53.61 325.13,54.04C324.65,54.46 324.03,54.68 323.26,54.68C322.49,54.68 321.91,54.47 321.43,54.04C320.95,53.62 320.71,53.01 320.71,52.21L320.71,42.1C320.71,40.59 320.44,39.52 319.91,38.88C319.38,38.24 318.56,37.91 317.47,37.91C316.13,37.91 315.06,38.37 314.27,39.29C313.48,40.21 313.08,41.46 313.08,43.05L313.08,52.21C313.08,53 312.84,53.61 312.36,54.04C311.88,54.46 311.27,54.68 310.53,54.68C309.79,54.68 309.17,54.47 308.68,54.04C308.19,53.61 307.94,53.01 307.94,52.21L307.94,42.1C307.94,40.59 307.67,39.52 307.14,38.88C306.61,38.24 305.79,37.91 304.7,37.91C303.36,37.91 302.3,38.37 301.52,39.29C300.74,40.21 300.35,41.46 300.35,43.05L300.35,52.21C300.35,53 300.1,53.61 299.61,54.04C299.12,54.46 298.5,54.68 297.76,54.68C297.02,54.68 296.41,54.47 295.93,54.04C295.45,53.62 295.21,53.01 295.21,52.21L295.21,36.31C295.21,35.54 295.46,34.95 295.95,34.54C296.44,34.13 297.06,33.92 297.8,33.92C298.54,33.92 299.09,34.12 299.55,34.52C300,34.92 300.23,35.49 300.23,36.22L300.23,37.21C300.86,36.11 301.7,35.28 302.76,34.7C303.81,34.12 305.03,33.84 306.4,33.84C309.41,33.84 311.42,35.1 312.44,37.62C313.04,36.47 313.93,35.55 315.11,34.87C316.29,34.19 317.62,33.84 319.09,33.84C321.28,33.84 322.96,34.49 324.12,35.79L324.1,35.79Z" style="fill:white;fill-rule:nonzero;"/>
        <path d="M348.09,49.45C348.38,49.81 348.52,50.29 348.52,50.89C348.52,51.74 348.01,52.45 347,53.03C346.07,53.55 345.01,53.97 343.84,54.28C342.66,54.59 341.54,54.75 340.47,54.75C337.24,54.75 334.68,53.82 332.79,51.96C330.9,50.1 329.96,47.55 329.96,44.32C329.96,42.27 330.37,40.44 331.19,38.86C332.01,37.27 333.17,36.04 334.66,35.16C336.15,34.28 337.84,33.85 339.73,33.85C341.62,33.85 343.11,34.25 344.45,35.04C345.79,35.83 346.83,36.96 347.57,38.41C348.31,39.86 348.68,41.57 348.68,43.55C348.68,44.73 348.16,45.32 347.12,45.32L335,45.32C335.16,47.21 335.7,48.6 336.6,49.49C337.5,50.38 338.82,50.82 340.54,50.82C341.42,50.82 342.19,50.71 342.86,50.49C343.53,50.27 344.29,49.97 345.14,49.59C345.96,49.15 346.56,48.93 346.95,48.93C347.42,48.93 347.79,49.11 348.08,49.46L348.09,49.45ZM336.51,38.77C335.67,39.65 335.18,40.91 335.01,42.55L344.29,42.55C344.23,40.88 343.82,39.61 343.06,38.75C342.29,37.89 341.23,37.46 339.86,37.46C338.49,37.46 337.35,37.9 336.51,38.77Z" style="fill:white;fill-rule:nonzero;"/>
        <path d="M367.76,53.47C366.21,52.62 365.01,51.4 364.17,49.81C363.32,48.22 362.9,46.37 362.9,44.26C362.9,42.15 363.32,40.31 364.17,38.74C365.02,37.17 366.22,35.95 367.76,35.1C369.31,34.25 371.11,33.83 373.16,33.83C375.21,33.83 377.01,34.25 378.56,35.1C380.11,35.95 381.3,37.16 382.13,38.74C382.96,40.32 383.38,42.16 383.38,44.26C383.38,46.36 382.96,48.22 382.13,49.81C381.29,51.4 380.1,52.62 378.56,53.47C377.01,54.32 375.21,54.74 373.16,54.74C371.11,54.74 369.31,54.32 367.76,53.47ZM376.94,49.12C377.82,48.02 378.25,46.41 378.25,44.27C378.25,42.13 377.81,40.55 376.94,39.44C376.06,38.33 374.8,37.78 373.16,37.78C371.52,37.78 370.25,38.33 369.36,39.44C368.47,40.55 368.03,42.16 368.03,44.27C368.03,46.38 368.47,48.02 369.34,49.12C370.22,50.22 371.48,50.76 373.12,50.76C374.76,50.76 376.06,50.21 376.94,49.12Z" style="fill:white;fill-rule:nonzero;"/>
        <path d="M404.67,35.89C405.85,37.26 406.44,39.33 406.44,42.09L406.44,52.2C406.44,52.97 406.21,53.57 405.76,54.01C405.31,54.45 404.68,54.67 403.89,54.67C403.1,54.67 402.47,54.45 402,54.01C401.53,53.57 401.3,52.97 401.3,52.2L401.3,42.38C401.3,40.82 401.01,39.68 400.42,38.97C399.83,38.26 398.91,37.9 397.65,37.9C396.17,37.9 394.99,38.37 394.1,39.3C393.21,40.23 392.77,41.48 392.77,43.04L392.77,52.2C392.77,52.97 392.54,53.57 392.07,54.01C391.6,54.45 390.97,54.67 390.18,54.67C389.39,54.67 388.76,54.45 388.31,54.01C387.86,53.57 387.63,52.97 387.63,52.2L387.63,36.3C387.63,35.59 387.86,35.01 388.33,34.57C388.8,34.13 389.42,33.91 390.22,33.91C390.93,33.91 391.51,34.12 391.97,34.55C392.42,34.97 392.65,35.53 392.65,36.21L392.65,37.32C393.33,36.2 394.25,35.33 395.4,34.73C396.55,34.13 397.85,33.83 399.3,33.83C401.71,33.83 403.5,34.51 404.68,35.88L404.67,35.89Z" style="fill:white;fill-rule:nonzero;"/>
        <path d="M446.54,52.2C446.54,52.83 446.3,53.39 445.82,53.86C445.34,54.34 444.77,54.58 444.12,54.58C443.47,54.58 442.8,54.29 442.23,53.72L428.55,40.9L428.55,51.99C428.55,52.78 428.31,53.43 427.83,53.92C427.35,54.41 426.7,54.66 425.88,54.66C425.06,54.66 424.45,54.41 423.97,53.92C423.49,53.43 423.25,52.78 423.25,51.99L423.25,27.88C423.25,27.09 423.49,26.45 423.97,25.97C424.45,25.49 425.09,25.25 425.88,25.25C426.67,25.25 427.35,25.49 427.83,25.97C428.31,26.45 428.55,27.09 428.55,27.88L428.55,38.44L441.78,26.03C442.27,25.54 442.83,25.29 443.46,25.29C444.09,25.29 444.64,25.53 445.12,26.01C445.6,26.49 445.84,27.04 445.84,27.67C445.84,28.3 445.57,28.88 445.02,29.4L433.97,39.51L445.72,50.44C446.27,50.96 446.54,51.55 446.54,52.21L446.54,52.2Z" style="fill:white;fill-rule:nonzero;"/>
        <path d="M453.46,53.47C451.91,52.62 450.71,51.4 449.87,49.81C449.02,48.22 448.6,46.37 448.6,44.26C448.6,42.15 449.02,40.31 449.87,38.74C450.72,37.17 451.92,35.95 453.46,35.1C455.01,34.25 456.81,33.83 458.86,33.83C460.91,33.83 462.71,34.25 464.26,35.1C465.81,35.95 467,37.16 467.83,38.74C468.67,40.32 469.08,42.16 469.08,44.26C469.08,46.36 468.66,48.22 467.83,49.81C467,51.4 465.8,52.62 464.26,53.47C462.71,54.32 460.91,54.74 458.86,54.74C456.81,54.74 455,54.32 453.46,53.47ZM462.64,49.12C463.52,48.02 463.95,46.41 463.95,44.27C463.95,42.13 463.51,40.55 462.64,39.44C461.76,38.33 460.5,37.78 458.86,37.78C457.22,37.78 455.95,38.33 455.06,39.44C454.17,40.55 453.73,42.16 453.73,44.27C453.73,46.38 454.17,48.02 455.04,49.12C455.92,50.22 457.18,50.76 458.82,50.76C460.46,50.76 461.76,50.21 462.64,49.12Z" style="fill:white;fill-rule:nonzero;"/>
        <path d="M474.16,44.93C473.76,44.57 473.56,44.08 473.56,43.45C473.56,42.82 473.76,42.32 474.16,41.95C474.56,41.58 475.15,41.4 475.95,41.4L484.41,41.4C485.2,41.4 485.8,41.59 486.2,41.95C486.6,42.32 486.8,42.82 486.8,43.45C486.8,44.08 486.6,44.57 486.2,44.93C485.8,45.29 485.21,45.46 484.41,45.46L475.95,45.46C475.16,45.46 474.56,45.28 474.16,44.93Z" style="fill:white;fill-rule:nonzero;"/>
        <path d="M511.57,36.26L511.57,52.2C511.57,52.99 511.33,53.6 510.85,54.03C510.37,54.45 509.76,54.67 509.02,54.67C508.28,54.67 507.66,54.46 507.17,54.03C506.68,53.6 506.43,53 506.43,52.2L506.43,38.19L498.3,38.19L498.3,52.2C498.3,52.99 498.06,53.6 497.58,54.01C497.1,54.42 496.49,54.63 495.75,54.63C495.01,54.63 494.39,54.42 493.9,54.01C493.41,53.6 493.16,53 493.16,52.2L493.16,38.19L491.11,38.19C489.58,38.19 488.81,37.55 488.81,36.26C488.81,34.97 489.58,34.33 491.11,34.33L493.16,34.33L493.16,34.12C493.16,31.57 493.84,29.55 495.19,28.06C496.55,26.57 498.46,25.71 500.92,25.49L501.87,25.41C502.01,25.38 502.21,25.37 502.49,25.37C503.94,25.37 504.67,25.99 504.67,27.22C504.67,27.82 504.51,28.29 504.18,28.62C503.85,28.95 503.4,29.14 502.82,29.2L501.92,29.28C500.66,29.39 499.74,29.78 499.17,30.45C498.59,31.12 498.31,32.1 498.31,33.39L498.31,34.33L509.28,34.33C510.81,34.33 511.58,34.97 511.58,36.26L511.57,36.26ZM506.8,29.5C506.25,28.99 505.98,28.33 505.98,27.51C505.98,26.69 506.25,26.03 506.8,25.54C507.35,25.05 508.09,24.8 509.02,24.8C509.95,24.8 510.66,25.05 511.22,25.54C511.78,26.03 512.06,26.69 512.06,27.51C512.06,28.33 511.78,29 511.22,29.5C510.66,30.01 509.93,30.26 509.02,30.26C508.11,30.26 507.35,30.01 506.8,29.5Z" style="fill:white;fill-rule:nonzero;"/>
    </g>
    <defs>
        <linearGradient id="_Linear1" x1="0" y1="0" x2="1" y2="0" gradientUnits="userSpaceOnUse" gradientTransform="matrix(10.38,31.85,-31.85,10.38,38.27,10.54)"><stop offset="0" style="stop-color:rgb(255,78,163);stop-opacity:1"/><stop offset="1" style="stop-color:rgb(255,94,91);stop-opacity:1"/></linearGradient>
    </defs>
</svg>
